# xmcd
#
# Track frame offsets: 
#        150
#        11322
#        21115
#        32483
#        42505
#        54218
#        64298
#        75325
#        86405
#        97427
#        110093
#        122808
#        135206
#        145571
#        154302
#        166047
#        177014
#        187532
#        198187
#        211685
#        222422
#
# Disc length: 3102 seconds
#
# Revision: 0
# Processed by: cddbd v1.5.2PL0 Copyright (c) Steve Scherf et al.
# Submitted via: ExactAudioCopyFreeDBPlugin 1.0
#
DISCID=070c1c15
DTITLE=Various Artist - Road Of The Deep Niagara ナイアガラの奥の細道~ルーツ・オブ・ナイ
DTITLE=アガラ・ポップス [CD2]
DYEAR=2017
DGENRE=Oldies
TTITLE0=Little Eva - The Loco-Motion
TTITLE1=The Chiffons - One Fine Day
TTITLE2=Eydie Gorme - Blame It On The Bossa Nova
TTITLE3=The Hawketts - Mardi Gras Mambo
TTITLE4=Nat King Cole - In The Cool Of The Day
TTITLE5=Nancy Sinatra - Like I Do
TTITLE6=Janie Grant - Triangle
TTITLE7=Neil Sedaka - Next Door To An Angel
TTITLE8=Jan and Dean - I Found A Girl
TTITLE9=Ronny and The Daytonas - Sandy
TTITLE10=Del Shannon - Little Town Flirt
TTITLE11=The Shadows - Blue Star
TTITLE12=The Shirelles - Foolish Little Girl
TTITLE13=Patience and Prudence - Tonight You Belong To Me
TTITLE14=Hank Ballard And The Midnighters - Finger Poppin'
TTITLE15=The Rivingtons - Papa-Oom-Mow-Mow
TTITLE16=Chubby Checker - Let's Twist Again
TTITLE17=Lee Andrews And The Hearts - Tear Drops
TTITLE18=The Tornados - Ridin' The Wind
TTITLE19=Jimmy Clanton - Venus In Blue Jeans
TTITLE20=The Little Dippers - Forever
EXTD=
EXTT0=
EXTT1=
EXTT2=
EXTT3=
EXTT4=
EXTT5=
EXTT6=
EXTT7=
EXTT8=
EXTT9=
EXTT10=
EXTT11=
EXTT12=
EXTT13=
EXTT14=
EXTT15=
EXTT16=
EXTT17=
EXTT18=
EXTT19=
EXTT20=
PLAYORDER=
